<svg width="239" height="138" viewBox="0 0 239 138" fill="none" xmlns="http://www.w3.org/2000/svg">
<g clip-path="url(#clip0_8_2040)">
<path d="M174.931 25.5699C173.227 26.5273 170.476 22.7402 169.853 24.5926C169.229 26.4451 170.739 33.9195 171.518 35.7122C171.905 36.6032 172.453 37.4181 172.833 38.3123C173.212 39.2064 173.416 40.2345 173.08 41.1462C172.496 42.7326 170.567 43.378 169.611 44.7724C168.497 46.3965 168.947 48.5839 169.468 50.4829C169.916 52.1197 170.395 53.7713 171.259 55.2324C172.123 56.6934 173.425 57.9656 175.053 58.449C177.125 59.0645 179.339 58.333 181.337 57.5072C183.258 56.7133 185.158 55.8133 186.791 54.5288C188.425 53.2444 189.787 51.5395 190.358 49.5419C191.075 47.0362 190.476 44.294 189.236 42.0018C187.996 39.7096 186.162 37.7999 184.279 35.997C181.109 32.9604 177.735 30.1363 174.188 27.5497" fill="#2F2E41"/>
<path d="M70.5422 59.8797C70.5422 59.8797 77.4427 55.8357 79.301 59.5855C81.1593 63.3353 98.3271 108.069 98.3271 108.069L87.2642 110.222L70.5422 59.8797L70.5422 59.8797Z" fill="#68A972"/>
<path d="M121.893 77.7452C118.631 76.754 116.498 74.2679 117.129 72.1927C117.761 70.1174 120.917 69.2392 124.18 70.2312C125.489 70.6096 126.688 71.2958 127.678 72.2325L141.447 76.6068L139.256 83.0221L125.914 78.0287C124.57 78.2566 123.191 78.1594 121.893 77.7452H121.893Z" fill="#FFB6B6"/>
<path d="M169.657 54.7749C169.657 54.7749 178.065 58.3604 176.683 63.4945C175.302 68.6286 159.971 85.8036 159.971 85.8036C159.971 85.8036 159.579 90.4941 154.819 89.4204C150.058 88.3467 127.779 80.4685 127.779 80.4685L130.689 71.7417L152.999 78.7716L162.503 57.8515L169.657 54.7749V54.7749Z" fill="#2F2E41"/>
<path d="M55.4918 33.157L55.8171 33.62C54.6044 34.3197 54.4256 36.0853 54.9943 37.3664C55.5629 38.6476 56.6636 39.5971 57.6156 40.6263C58.5677 41.6555 59.4357 42.9302 59.3474 44.3297C59.2483 45.9036 57.9646 47.1998 57.7858 48.7673C57.5273 51.0496 59.6533 53.0521 59.5477 55.3473C59.468 57.1 58.1196 58.5081 56.782 59.645C55.7352 60.5364 54.5958 61.4321 53.8893 62.5819C53.6954 62.8984 53.5339 63.2364 53.4154 63.5982C52.8877 65.2302 53.3853 67.0087 54.0551 68.587C54.7229 70.1652 55.5737 71.7069 55.7826 73.4079C55.9894 75.1088 55.3475 77.0725 53.7816 77.7701C56.9005 77.5031 59.9441 76.4158 62.5266 74.6481C62.7593 74.4887 62.9854 74.3251 63.2094 74.1572C66.8712 71.4011 69.443 67.42 71.9179 63.54C72.1225 63.2214 72.325 62.9005 72.5296 62.5819C73.0788 61.7185 73.6303 60.8572 74.1817 59.9938C75.754 57.5263 77.3458 55.0222 78.2031 52.2274C78.9914 49.6501 79.125 46.9264 79.4481 44.25C79.6053 42.9388 79.8121 41.6318 79.8509 40.3119C79.9133 38.2815 79.5665 36.2425 78.86 34.337C78.1686 32.4637 77.1304 30.7175 75.7928 29.2318C74.4229 27.7096 72.7471 26.4715 70.9033 25.5801C69.1177 24.7167 67.1749 24.1806 65.1954 24.032C64.532 23.9825 63.8707 23.9739 63.2094 24.004C60.601 24.1117 58.0227 24.7705 55.5155 25.5801C53.6717 26.4715 51.996 27.7096 50.6261 29.2318C49.2885 30.7175 48.2502 32.4637 47.5588 34.337C49.9626 33.0537 52.8188 32.6123 55.4918 33.157Z" fill="#2F2E41"/>
<path d="M171.429 80.2261H156.879V100.346H171.429V80.2261Z" fill="#2F2E41"/>
<path d="M74.1854 56.7121L61.8177 51.8639L61.5046 56.7121L50.6626 58.409L45.5701 81.4381L50.1776 95.7404L84.613 96.71L83.4005 91.8618C83.4005 91.8618 88.978 85.5591 85.583 75.3778L85.2059 72.7866C84.2202 66.0119 80.1504 60.0757 74.1854 56.7121L74.1854 56.7121V56.7121Z" fill="#68A972"/>
<path d="M190.95 57.0758L173.733 55.3789L156.515 75.0142C156.515 75.0142 151.665 86.65 162.093 90.5286V100.195L188.283 100.952L190.95 57.0758Z" fill="#E6E6E6"/>
<path d="M176.885 103.134L184.645 53.682L198.953 57.803V106.792L176.885 103.134Z" fill="#2F2E41"/>
<path d="M179.189 50.4094C186.019 50.4094 191.557 44.8743 191.557 38.0465C191.557 31.2186 186.019 25.6835 179.189 25.6835C172.358 25.6835 166.821 31.2186 166.821 38.0465C166.821 44.8743 172.358 50.4094 179.189 50.4094Z" fill="#FFB6B6"/>
<path d="M67.302 51.6461C73.369 51.6461 78.2872 46.7297 78.2872 40.665C78.2872 34.6004 73.369 29.684 67.302 29.684C61.2351 29.684 56.3169 34.6004 56.3169 40.665C56.3169 46.7297 61.2351 51.6461 67.302 51.6461Z" fill="#A0616A"/>
<path d="M193.131 57.4086C190.244 61.5248 188.768 66.6106 189.002 71.632C185.729 70.0472 183.521 66.6988 182.769 63.142C182.017 59.5852 182.59 55.8507 183.799 52.4218C183.811 52.3875 183.823 52.3533 183.835 52.319C185.669 47.1724 183.965 41.4203 179.534 38.221C176.546 36.063 173.954 33.3556 171.965 30.2523C170.842 28.5003 169.887 26.3025 170.726 24.3982C171.499 22.6435 173.496 21.8233 175.334 21.2746C179.531 20.0215 183.99 19.3085 188.297 20.1014C192.605 20.8943 196.751 23.3705 198.787 27.247C200.823 31.1235 200.289 36.414 196.985 39.2878C198.027 39.6247 198.765 40.7289 198.676 41.8202C198.588 42.9115 197.682 43.8825 196.599 44.0471C197.306 44.0221 197.723 44.9522 197.471 45.6124C197.219 46.2727 196.569 46.6828 195.949 47.0227C195.066 47.5067 194.088 48.0129 194.084 49.2806C194.082 49.7889 194.264 50.2822 194.56 50.6954C195.278 51.6965 196.437 52.1473 197.553 52.5706C195.193 53.2654 193.311 55.3739 192.889 57.7967" fill="#2F2E41"/>
<path d="M46.568 40.3119C46.6067 41.6318 46.8135 42.9388 46.9708 44.25C47.2938 46.9264 47.4274 49.6501 48.2157 52.2274C49.073 55.0222 50.6648 57.5263 52.2372 59.9938C52.7886 60.8572 53.34 61.7185 53.8892 62.5819C54.0939 62.9005 54.2963 63.2214 54.501 63.54C56.9759 67.42 59.5477 71.4011 63.2094 74.1572C63.4334 74.3251 63.6596 74.4887 63.8922 74.6481C66.4748 76.4158 69.5183 77.5031 72.6372 77.7701C71.0713 77.0725 70.4294 75.1088 70.6362 73.4079C70.8452 71.7069 71.696 70.1652 72.3637 68.587C73.0336 67.0087 73.5311 65.2302 73.0034 63.5982C72.8849 63.2364 72.7234 62.8984 72.5295 62.5819C71.823 61.4321 70.6836 60.5364 69.6368 59.645C68.2992 58.5081 66.9508 57.1 66.8711 55.3473C66.7656 53.0521 65.2987 53.8207 65.0402 51.5384C64.8615 49.9709 62.77 47.2989 62.6709 45.7249C62.5826 44.3254 63.442 40.9406 64.3941 39.9114C65.3461 38.8822 64.4716 35.8097 65.0402 34.5286C65.6089 33.2475 71.8144 34.3197 70.6017 33.62L70.927 33.157C73.6 32.6123 76.4562 33.0537 78.86 34.337C79.3834 34.6147 79.8831 34.9312 80.357 35.2887C81.5007 33.2001 80.1437 30.5496 78.2978 29.0445C76.4906 27.5675 74.2635 26.7148 72.0535 25.9634C71.6723 25.8342 71.2889 25.705 70.9033 25.5801C68.3961 24.7705 65.8178 24.1117 63.2094 24.004C62.5481 23.9739 61.8869 23.9825 61.2234 24.032C59.244 24.1806 57.3011 24.7167 55.5155 25.5801C53.6717 26.4715 51.9959 27.7096 50.626 29.2318C49.2884 30.7175 48.2502 32.4637 47.5588 34.337C46.8523 36.2425 46.5055 38.2815 46.568 40.3119H46.568Z" fill="#2F2E41"/>
<path d="M174.581 55.2577C174.581 55.2577 153.241 75.3779 159.304 94.0435L160.031 99.1342L152.271 97.9221C152.271 97.9221 157.606 58.6515 162.941 56.7122C168.276 54.7729 170.944 52.5912 172.641 52.5912C174.339 52.5912 174.581 55.2577 174.581 55.2577Z" fill="#2F2E41"/>
<path d="M232.065 138H232.036L6.91135 137.114C4.46951 137.104 2.25988 135.85 1.00047 133.759C-0.258931 131.667 -0.333646 129.129 0.800834 126.967L17.2131 95.6931C18.4138 93.4046 20.7657 91.983 23.3508 91.983H216.752C219.411 91.983 221.868 93.5338 223.01 95.9341L238.322 128.094C239.353 130.258 239.201 132.759 237.917 134.783C236.637 136.799 234.451 138 232.065 138Z" fill="white"/>
<path d="M232.065 138H232.036L6.91135 137.114C4.46951 137.104 2.25988 135.85 1.00047 133.759C-0.258931 131.667 -0.333646 129.129 0.800834 126.967L17.2131 95.6931C18.4138 93.4046 20.7657 91.983 23.3508 91.983H216.752C219.411 91.983 221.868 93.5338 223.01 95.9341L238.322 128.094C239.353 130.258 239.201 132.759 237.917 134.783C236.637 136.799 234.451 138 232.065 138ZM23.3508 92.7103C21.037 92.7103 18.932 93.9827 17.8572 96.0306L1.44498 127.305C0.42974 129.239 0.496523 131.512 1.62378 133.384C2.75092 135.256 4.72871 136.378 6.91419 136.387L232.039 137.273H232.065C234.201 137.273 236.157 136.198 237.302 134.393C238.452 132.582 238.588 130.344 237.665 128.407L222.353 96.2465C221.331 94.0985 219.132 92.7103 216.752 92.7103H23.3508Z" fill="#812727"/>
<path d="M68.7292 115.255L105.347 101.922L87.0381 94.5608L50.5415 104.104L68.7292 115.255Z" fill="#F2F2F2"/>
<path d="M124.505 95.1343L120.382 108.225L168.64 111.133L164.518 96.3464L124.505 95.1343Z" fill="#F2F2F2"/>
<path d="M67.6202 97.3735C71.0132 97.7099 73.5898 99.7325 73.3754 101.891C73.1609 104.049 70.2367 105.526 66.8426 105.189C65.4849 105.073 64.1748 104.634 63.0218 103.908L48.6636 102.301L49.5614 95.582L63.6207 97.8792C64.8943 97.3938 66.2658 97.2204 67.6202 97.3735Z" fill="#A0616A"/>
<path d="M53.2089 59.7423L50.6626 58.409C50.6626 58.409 46.6613 58.5302 43.9938 61.1967C41.3263 63.8633 19.7435 94.4071 19.7435 94.4071C19.7435 94.4071 14.4085 102.649 27.7461 103.861C41.0838 105.073 55.8764 105.073 55.8764 105.073L57.0889 95.1343L36.9612 92.9526L51.056 74.2869L53.2089 59.7423Z" fill="#68A972"/>
<path d="M159.724 102.743C156.319 102.92 153.467 101.308 153.355 99.1416C153.242 96.9754 155.911 95.0762 159.317 94.8993C160.677 94.81 162.038 95.0475 163.287 95.5919L177.724 95.0228L177.847 101.801L163.602 101.642C162.416 102.313 161.086 102.691 159.724 102.743Z" fill="#FFB6B6"/>
<path d="M188.477 56.4698C188.477 56.4698 197.255 53.9244 199.438 58.7727C201.62 63.6209 213.988 99.4978 213.988 99.4978C213.988 99.4978 216.656 103.376 212.291 105.558C207.926 107.74 172.763 102.407 172.763 102.407L173.904 94.7708L198.71 92.4679L184.888 63.3785L188.477 56.4698Z" fill="#2F2E41"/>
<path d="M128.877 56.5134C126.43 57.2382 123.845 57.6478 121.175 57.6867C121.017 57.6915 120.86 57.6939 120.702 57.6939C118.287 57.6939 115.942 57.3958 113.699 56.8334L113.757 56.2588L115.062 43.6801L115.144 42.8753L113.934 39.2464H128.78L128.542 42.7929L128.455 44.0849L128.584 44.4946L131.857 54.9232L132.003 55.3886C130.989 55.8225 129.946 56.1982 128.877 56.5134V56.5134Z" fill="#68A972"/>
<path d="M113.699 56.8334C110.175 55.9535 106.906 54.4214 104.028 52.3779C102.842 51.7355 101.69 51.0398 100.587 50.3028L101.132 50.0289L114.841 43.1759L115.062 43.6801L120.964 57.2067L121.175 57.6867C121.018 57.6915 120.86 57.694 120.702 57.694C118.287 57.694 115.942 57.3958 113.699 56.8334H113.699Z" fill="#2F2E41"/>
<path d="M143.565 46.4291C143.505 46.5114 143.442 46.5915 143.379 46.6715C142.355 47.9708 141.22 49.178 139.993 50.281L139.984 49.6337L139.95 47.2508C139.95 47.2508 140.929 46.5357 142.14 46.349C142.428 46.303 142.731 46.2884 143.037 46.3224C143.214 46.3393 143.388 46.3733 143.565 46.4291Z" fill="#2F2E41"/>
<path d="M139.993 50.281C137.646 52.3972 134.949 54.1329 132.003 55.3886C130.989 55.8225 129.947 56.1982 128.877 56.5134L128.865 56.0116L128.584 44.4946L128.542 42.7929L142.14 46.3491L142.862 46.5382L143.379 46.6715C142.355 47.9708 141.22 49.178 139.993 50.281V50.281Z" fill="#2F2E41"/>
<path d="M121.497 35.3139C127.512 35.3139 132.388 30.4398 132.388 24.4272C132.388 18.4147 127.512 13.5405 121.497 13.5405C115.482 13.5405 110.606 18.4147 110.606 24.4272C110.606 30.4398 115.482 35.3139 121.497 35.3139Z" fill="#A0616A"/>
<path d="M120.702 0C104.792 0 91.8444 12.9399 91.8444 28.847C91.8444 29.0215 91.8468 29.196 91.8517 29.3706C92.002 29.1936 92.1621 29.0191 92.3294 28.847C100.332 20.605 105.058 0.484823 120.702 0.484823C136.348 0.484823 149.075 13.2066 149.075 28.847C149.075 35.4333 146.817 41.5033 143.037 46.3224C142.978 46.3951 142.923 46.4678 142.862 46.5381C141.979 47.6411 141.017 48.6762 139.984 49.6337C137.614 51.8348 134.869 53.6335 131.857 54.9232C130.887 55.3425 129.888 55.7062 128.865 56.0115C126.357 56.7679 123.707 57.1824 120.964 57.2067C120.877 57.2091 120.789 57.2091 120.702 57.2091C118.505 57.2091 116.15 56.8721 113.757 56.2588C110.488 55.4225 107.144 54.0747 104.028 52.3779C106.906 54.4214 110.175 55.9534 113.699 56.8334C115.942 57.3958 118.287 57.6939 120.702 57.6939C120.86 57.6939 121.017 57.6915 121.175 57.6866C123.845 57.6478 126.43 57.2382 128.877 56.5134C129.946 56.1982 130.989 55.8225 132.003 55.3886C134.949 54.1329 137.646 52.3972 139.993 50.281C141.22 49.178 142.355 47.9708 143.379 46.6715C143.442 46.5915 143.505 46.5115 143.565 46.4291C147.324 41.559 149.56 35.46 149.56 28.847C149.56 12.9399 136.615 0 120.702 0V0ZM101.132 50.0289C95.5426 44.8655 91.9947 37.5253 91.8517 29.3706C86.1456 35.9738 91.8153 44.4485 100.587 50.3028C101.69 51.0397 102.842 51.7354 104.028 52.3779C103.012 51.6578 102.044 50.8724 101.132 50.0289ZM128.865 56.0115C126.357 56.7679 123.707 57.1824 120.964 57.2067L121.175 57.6866C123.845 57.6478 126.43 57.2382 128.877 56.5134L128.865 56.0115Z" fill="#E6E6E6"/>
<path d="M111.743 30.2187C109.783 28.3707 108.416 25.921 109.784 20.699C109.886 20.3103 109.613 19.8929 109.349 19.5894C109.086 19.2859 108.589 19.1448 108.276 19.3974C108.499 18.7418 111.551 16.4002 111.773 15.7446C111.513 16.0895 109.529 16.829 109.37 16.4274C109.211 16.0258 109.35 15.5745 109.49 15.1658L110.323 12.7293C110.532 12.1165 111.359 12.8487 111.773 12.3508C112.516 11.4589 111.668 10.5187 112.802 10.2687C116.511 9.45028 120.444 8.71911 124.047 9.92033C125.621 10.445 127.053 11.3168 128.469 12.1812L131.06 13.7631C132.547 14.6705 134.161 15.747 134.568 17.4399L131.848 16.4678C132.454 17.7578 133.065 19.0638 133.342 20.4618C133.62 21.8598 132.87 27.1236 132.143 28.35C131.505 29.4274 131.054 26.5338 130.844 27.7682C131.084 25.3435 129.992 22.8283 128.056 21.3475C127.659 21.0437 127.207 20.7516 127.03 20.2841C126.833 19.7627 127.031 19.1356 126.762 18.6474C126.428 18.0403 125.554 17.9825 124.904 18.2208C124.253 18.459 123.683 18.9068 123.009 19.0673C121.221 19.4928 119.595 17.8031 117.761 17.676C116.015 17.555 114.453 18.9217 113.726 20.5141C113 22.1065 110.991 21.7618 110.803 23.5018C110.615 25.2418 113.358 28.6852 112.258 30.0469" fill="#2F2E41"/>
<path d="M105.302 42.037C105.203 41.9088 105.018 41.8856 104.889 41.9853C104.88 41.9929 104.87 42.001 104.862 42.0097L104.413 42.4587C104.203 42.6687 104.126 42.9658 104.218 43.2265C104.598 44.3057 105.216 45.2854 106.027 46.0931C106.835 46.9033 107.815 47.5213 108.894 47.9012C109.155 47.9928 109.452 47.9155 109.662 47.706L110.111 47.2575C110.226 47.1427 110.226 46.9564 110.111 46.8415C110.103 46.8328 110.093 46.8247 110.084 46.8171L109.083 46.0389C109.011 45.9836 108.918 45.9641 108.831 45.986L107.88 46.2233C107.622 46.2877 107.349 46.2122 107.161 46.0242L106.096 44.9583C105.907 44.7704 105.832 44.4975 105.896 44.2395L106.134 43.2894C106.156 43.2019 106.136 43.1091 106.081 43.0378L105.302 42.037ZM104.534 41.6826C104.83 41.3869 105.309 41.3869 105.605 41.6824C105.627 41.7047 105.648 41.7284 105.668 41.7533L106.446 42.7537C106.589 42.9372 106.639 43.1762 106.583 43.4018L106.345 44.3518C106.321 44.4519 106.35 44.5578 106.423 44.6308L107.489 45.6966C107.562 45.7696 107.668 45.799 107.768 45.7738L108.718 45.5366C108.944 45.4802 109.183 45.5305 109.367 45.6732L110.368 46.4515C110.727 46.7313 110.76 47.2627 110.438 47.5841L109.99 48.0327C109.668 48.3537 109.188 48.4947 108.741 48.3372C107.596 47.9344 106.556 47.2791 105.699 46.4198C104.839 45.563 104.184 44.5238 103.781 43.3792C103.624 42.9324 103.765 42.4522 104.086 42.1312L104.535 41.6826H104.534H104.534Z" fill="#CCCCCC"/>
<path d="M119.834 44.26C119.954 44.26 120.051 44.3571 120.051 44.4769V44.9107C120.051 45.8691 120.829 46.6459 121.787 46.6459C122.746 46.6459 123.523 45.8691 123.523 44.9107V44.4769C123.523 44.3571 123.62 44.26 123.74 44.26C123.86 44.26 123.957 44.3571 123.957 44.4769V44.9107C123.957 46.0247 123.113 46.9575 122.004 47.0689V47.9474H123.306C123.426 47.9474 123.523 48.0445 123.523 48.1643C123.523 48.2841 123.426 48.3812 123.306 48.3812H120.268C120.149 48.3812 120.051 48.2841 120.051 48.1643C120.051 48.0445 120.149 47.9474 120.268 47.9474H121.57V47.0689C120.462 46.9575 119.617 46.0247 119.617 44.9107V44.4769C119.617 44.3571 119.715 44.26 119.834 44.26Z" fill="#CCCCCC"/>
<path d="M122.655 44.9107C122.655 45.3899 122.267 45.7783 121.787 45.7783C121.308 45.7783 120.919 45.3899 120.919 44.9107V42.7417C120.919 42.2625 121.308 41.8741 121.787 41.8741C122.267 41.8741 122.655 42.2625 122.655 42.7417V44.9107ZM121.787 41.4402C121.068 41.4402 120.485 42.0229 120.485 42.7417V44.9107C120.485 45.6295 121.068 46.2121 121.787 46.2121C122.506 46.2121 123.089 45.6295 123.089 44.9107V42.7417C123.089 42.0229 122.506 41.4402 121.787 41.4402Z" fill="#CCCCCC"/>
<path d="M138.556 44.9261C138.556 45.1707 138.515 45.4063 138.441 45.6258L138.088 45.2727C138.111 45.1586 138.122 45.0425 138.122 44.9261V44.4923C138.122 44.3725 138.219 44.2754 138.339 44.2754C138.459 44.2754 138.556 44.3725 138.556 44.4923V44.9261ZM136.386 46.6613C136.741 46.6613 137.071 46.555 137.346 46.3719L137.658 46.6839C137.348 46.9084 136.984 47.0466 136.603 47.0843V47.9627H137.905C138.025 47.9627 138.122 48.0598 138.122 48.1796C138.122 48.2994 138.025 48.3965 137.905 48.3965H134.867C134.748 48.3965 134.651 48.2994 134.651 48.1796C134.651 48.0598 134.748 47.9627 134.867 47.9627H136.169V47.0843C135.061 46.9729 134.217 46.04 134.217 44.9261V44.4923C134.217 44.3725 134.314 44.2754 134.434 44.2754C134.553 44.2754 134.651 44.3725 134.651 44.4923V44.9261C134.651 45.8844 135.428 46.6613 136.386 46.6613V46.6613ZM137.688 42.757V44.8736L137.254 44.4398V42.757C137.256 42.2779 136.87 41.8877 136.39 41.8856C135.928 41.8836 135.545 42.2443 135.52 42.7059L135.153 42.3393C135.385 41.6586 136.125 41.2946 136.806 41.5262C137.333 41.7056 137.688 42.2003 137.688 42.757V42.757Z" fill="#CCCCCC"/>
<path d="M137.031 46.057L136.707 45.7325C136.261 45.9093 135.757 45.6916 135.58 45.2463C135.539 45.1444 135.518 45.0357 135.518 44.926V44.5452L135.084 44.1114V44.926C135.084 45.6448 135.667 46.2276 136.386 46.2279C136.612 46.2279 136.835 46.169 137.031 46.057ZM133.629 42.043L138.837 47.2486L139.144 46.9415L133.936 41.7358L133.629 42.043Z" fill="#CCCCCC"/>
</g>
<defs>
<clipPath id="clip0_8_2040">
<rect width="239" height="138" fill="white"/>
</clipPath>
</defs>
</svg>
