<svg width="232" height="125" viewBox="0 0 232 125" fill="none" xmlns="http://www.w3.org/2000/svg">
<g clip-path="url(#clip0_8_2121)">
<path d="M179.323 81.617C177.435 79.1644 174.165 74.916 168.541 73.6384C157.945 71.2312 148.84 81.6064 147.981 82.6143C139.407 92.6694 138.08 110.062 146.727 118.518C151.16 122.853 157.183 123.833 159.765 124.253C162.8 124.747 169.858 125.895 175.813 121.76C179.01 119.539 180.543 116.729 181.579 114.778C186.441 105.625 187.071 91.6843 179.323 81.617ZM166.161 119.743C159.95 120.381 154.063 114.585 151.645 109.157C150.295 106.069 149.822 102.672 150.277 99.3355C150.732 95.9989 152.098 92.85 154.225 90.2307C155.122 89.1496 159.893 83.4 166.484 84.1357C172.967 84.8593 176.827 91.3667 178.097 95.6841C180.973 105.46 174.932 118.842 166.161 119.743Z" fill="#68A972"/>
<path d="M126.987 121.004H123.721L122.167 108.474H126.988L126.987 121.004Z" fill="#FFB6B6"/>
<path d="M126.9 119.943L123.412 118.532L123.312 118.491L121.386 119.943C120.299 119.943 119.256 120.373 118.488 121.137C117.719 121.902 117.287 122.939 117.287 124.02V124.152H127.819V119.943H126.9Z" fill="#2F2E41"/>
<path d="M167.892 96.0175L167.155 99.1822L154.529 97.862L155.616 93.191L167.892 96.0175Z" fill="#FFB6B6"/>
<path d="M167.04 94.9703L166.851 95.7788L166.831 95.862L164.669 98.9207L164.603 99.012L165.589 101.204C165.467 101.726 165.451 102.266 165.539 102.794C165.628 103.322 165.82 103.828 166.105 104.282C166.39 104.736 166.763 105.13 167.201 105.441C167.639 105.752 168.135 105.974 168.66 106.094L168.788 106.124L171.165 95.9213L167.04 94.9703Z" fill="#2F2E41"/>
<path d="M124.772 53.6583L142.785 54.2852L142.91 54.1038C142.91 54.1038 144.447 57.6689 144.447 60.7247C144.447 61.7406 143.736 68.3857 144.097 69.6429C144.142 69.7993 143.833 70.1824 143.934 70.9106C144 71.383 144.363 71.0196 144.447 71.6745C144.506 72.1445 143.868 72.404 143.934 72.9477C144.007 73.5417 144.886 75.4659 144.965 76.1267C145.807 83.1616 144.437 84.9898 144.437 84.9898C144.437 84.9898 159.843 91.4091 160.795 91.604C162.394 91.931 163.474 94.8224 162.588 95.4237C162.166 95.71 160.762 101.043 160.762 101.043C160.462 101.097 159.524 100.63 160.122 99.5241C160.232 99.3205 159.576 99.8385 159.467 99.5949C159.351 99.3357 157.71 100.473 157.577 100.185C156.385 97.6022 141.473 94.0228 139.738 92.1847C137.176 89.4692 135.553 86.0105 135.107 82.3133L133.622 68.7449L132.258 74.8951L131.13 76.0035L131.44 78.588L131.386 81.0965L128.57 91.537C128.57 91.537 128.147 111.035 128.826 111.654C129.193 111.99 130.753 116.12 127.801 116.492L122.439 116.081C122.439 116.081 121.717 114.567 122.078 114.028C122.439 113.49 122.418 113.637 121.977 112.755C121.536 111.873 121.717 110.379 121.717 110.379C121.015 103.357 120.737 96.3 120.887 89.2452C121.156 77.658 122.785 64.3465 122.785 64.0752C122.798 63.798 122.747 63.5214 122.635 63.2672V62.5359L123.327 59.9444L124.772 53.6583Z" fill="#2F2E41"/>
<path d="M144.398 57.8483C139.85 58.6305 136.8 58.3327 134.923 55.5565C132.475 52.456 128.022 56.117 124.264 57.4782L123.819 56.9995L123.061 56.1871L123.757 55.4028L123.061 53.8902L123.642 52.0236L124.385 51.8887L124.185 50.2819L123.873 49.3422L124.789 48.3414L125.568 45.8434L125.007 40.6154C124.24 33.4494 125.727 26.2232 129.263 19.9329L131.391 18.0333L132.275 17.2439L133.46 15.0437L134.713 15.1889L138.103 15.5785L138.218 15.8535L139.051 17.8499L142.074 21.0794C142.502 21.5362 142.826 22.0783 143.027 22.6696C143.228 23.2609 143.299 23.8879 143.237 24.509L143.15 25.3798L143.086 26.0063L142.784 29.0213L141.552 41.3386L141.46 41.9931L140.469 49.0748C142.08 50.6231 142.178 50.2853 142.862 53.01C142.939 53.313 143.83 53.9879 143.886 54.2832C143.965 54.7009 144.398 57.8483 144.398 57.8483Z" fill="#812727"/>
<path d="M135.164 13.7458C138.416 13.7458 141.053 11.124 141.053 7.88987C141.053 4.65572 138.416 2.03394 135.164 2.03394C131.911 2.03394 129.275 4.65572 129.275 7.88987C129.275 11.124 131.911 13.7458 135.164 13.7458Z" fill="#FFB6B6"/>
<path d="M141.325 3.48167C140.936 3.06383 140.436 2.76385 139.883 2.61634C139.33 2.46883 138.746 2.47979 138.199 2.64798C137.96 1.96572 137.536 1.36196 136.975 0.902422C136.414 0.442887 135.737 0.145197 135.018 0.0417632C134.299 -0.0616707 133.565 0.0331181 132.896 0.315808C132.227 0.598498 131.649 1.05825 131.225 1.64501C131.031 1.55837 130.817 1.52302 130.606 1.54237C130.394 1.56173 130.191 1.63513 130.016 1.75548C129.668 2.00101 129.389 2.32924 129.202 2.71012C128.721 3.61967 128.496 4.64202 128.553 5.66834C128.609 6.69466 128.945 7.68654 129.523 8.5384C129.293 8.07566 129.94 8.87261 130.572 8.66382C131.114 8.52243 133.343 7.10161 133.899 7.17345C134.455 7.24528 134.635 6.79937 135.179 6.66415C135.712 6.4947 137.072 8.68489 137.345 10.1341C137.396 10.4087 137.522 10.7499 137.803 10.7562C138.149 10.7639 138.252 10.2712 138.544 10.0862C138.682 10.0167 138.841 10.0029 138.988 10.0479C139.136 10.0928 139.26 10.193 139.335 10.3272C139.403 10.4652 139.437 10.6174 139.434 10.7711C139.431 10.9248 139.392 11.0756 139.318 11.2109C139.169 11.4799 138.977 11.7233 138.75 11.9315L138.901 12.014C139.05 12.12 139.231 12.1712 139.414 12.1589C139.597 12.1466 139.769 12.0715 139.902 11.9464C140.465 12.1988 141.994 10.7758 141.791 9.91482C142.219 8.85953 142.452 7.73668 142.481 6.59948C142.505 5.45242 142.092 4.33882 141.325 3.48167Z" fill="#2F2E41"/>
<path d="M95.9382 23.2139C96.1561 23.4176 96.4163 23.5712 96.7004 23.6641C96.9845 23.7569 97.2856 23.7867 97.5826 23.7513C97.8795 23.7159 98.165 23.6162 98.419 23.4592C98.673 23.3022 98.8893 23.0918 99.0526 22.8427L111.64 25.8382L110.384 22.2958L98.3439 19.9313C97.9049 19.6861 97.3907 19.6097 96.8988 19.7163C96.4068 19.823 95.9713 20.1054 95.6748 20.5101C95.3783 20.9147 95.2413 21.4134 95.2899 21.9118C95.3384 22.4101 95.5691 22.8734 95.9382 23.2139Z" fill="#FFB8B8"/>
<path d="M133.546 21.0349L132.538 20.5119L127.938 20.44L127.769 20.4383L127.76 20.4391L124.234 20.3855L107.205 20.1202L106.52 20.7148L105.467 20.0931L104.274 19.4916L103.178 20.0575L102.242 20.0429L102.099 20.6678L102.098 20.67L102.094 20.6881L101.459 23.4144L101.458 23.4166L101.466 24.0596L102.568 25.2402L103.152 25.6855L104.364 26.2187L105.204 25.2243L106.189 26.2414L110.225 26.9803C116.973 28.829 123.187 29.7187 127.956 28.01L128.555 27.9822L133.288 27.7582C133.936 27.7283 134.559 27.5085 135.081 27.1265C135.602 26.7445 135.999 26.2175 136.219 25.6119L136.221 25.6097C136.37 25.1983 136.434 24.761 136.409 24.3243C136.388 23.923 136.291 23.5292 136.122 23.1638C135.82 22.499 135.304 21.9533 134.655 21.6129L133.546 21.0349Z" fill="#812727"/>
<path d="M203.759 117.176C203.986 117.184 204.211 117.123 204.402 117C204.593 116.877 204.742 116.699 204.827 116.489C204.913 116.279 204.932 116.049 204.882 115.828C204.831 115.607 204.714 115.407 204.545 115.255C204.516 115.145 204.495 115.066 204.466 114.955C204.678 114.403 205.052 113.927 205.538 113.588C206.024 113.248 206.601 113.061 207.195 113.05C207.789 113.039 208.373 113.204 208.872 113.525C209.37 113.846 209.761 114.308 209.995 114.851C211.34 117.901 213.073 121.055 212.258 124.435C217.738 112.595 215.696 97.9495 207.333 87.947C205.037 86.717 203.163 84.5109 202.656 81.9335C203.791 82.3038 205.192 81.3758 204.33 80.1994C203.958 79.7502 203.581 79.3046 203.208 78.8554C207.46 74.2657 212.647 81.3667 207.977 87.5512C209.543 89.4649 210.902 91.536 212.034 93.7309C211.755 91.3915 212.039 89.0198 212.861 86.8106C213.697 84.7512 215.283 83.0083 216.678 81.2215C218.373 79.0444 221.915 80.0079 222.172 82.7479C220.593 83.2805 220.409 85.5574 222.224 85.8516C221.798 90.9574 218.492 95.6771 213.897 97.958C215.647 102.698 216.361 107.754 215.992 112.79C216.75 106.902 223.085 105.414 227.5 103.035C227.78 102.852 228.108 102.755 228.444 102.754C228.78 102.754 229.108 102.85 229.389 103.032C229.67 103.214 229.892 103.474 230.028 103.779C230.163 104.084 230.207 104.422 230.152 104.751C229.542 105.004 228.959 105.318 228.411 105.686C228.155 105.861 227.959 106.111 227.85 106.401C227.742 106.691 227.727 107.007 227.806 107.307C227.886 107.606 228.057 107.873 228.295 108.072C228.534 108.271 228.828 108.392 229.138 108.418C226.955 113.944 221.207 117.695 215.268 117.73C214.721 120.202 213.917 122.61 212.869 124.917L204.055 125C204.022 124.903 203.993 124.803 203.963 124.706C204.78 124.749 205.598 124.693 206.401 124.538C204.218 122.017 202.536 120.736 203.759 117.176L203.759 117.176Z" fill="#F2F2F2"/>
<path d="M26.5237 92.3962C26.2962 92.4044 26.0717 92.3429 25.8805 92.22C25.6894 92.0971 25.5408 91.9188 25.455 91.7091C25.3692 91.4995 25.3503 91.2687 25.4008 91.048C25.4513 90.8273 25.5689 90.6274 25.7375 90.4753C25.7665 90.3649 25.7874 90.2857 25.8164 90.1753C25.6041 89.6236 25.2309 89.1475 24.7447 88.808C24.2585 88.4686 23.6814 88.2813 23.0875 88.2701C22.4935 88.2589 21.9097 88.4243 21.4109 88.7452C20.9122 89.0661 20.5211 89.5278 20.2879 90.0711C18.943 93.1208 17.2099 96.2747 18.0244 99.6555C12.5441 87.8147 14.5866 73.1697 22.9492 63.1671C25.246 61.9372 27.1192 59.7311 27.626 57.1537C26.4916 57.5239 25.0905 56.596 25.9521 55.4196C26.3249 54.9703 26.7013 54.5248 27.0742 54.0755C22.8223 49.4858 17.6358 56.5868 22.3051 62.7714C20.74 64.6851 19.3803 66.7562 18.2483 68.951C18.5272 66.6117 18.2437 64.2399 17.421 62.0308C16.5856 59.9713 14.9993 58.2285 13.6048 56.4417C11.9094 54.2646 8.36769 55.2281 8.11051 57.968C9.68936 58.5007 9.87333 60.7776 8.05866 61.0718C8.48433 66.1775 11.7909 70.8972 16.3853 73.1782C14.6352 77.9181 13.9211 82.9746 14.2906 88.0105C13.5322 82.1219 7.19759 80.6346 2.78282 78.2552C2.50214 78.0725 2.17403 77.9749 1.83853 77.9744C1.50302 77.9739 1.17462 78.0705 0.893383 78.2524C0.612146 78.4343 0.390231 78.6937 0.254709 78.9989C0.119186 79.3041 0.0759183 79.6419 0.130176 79.9712C0.740219 80.2246 1.32344 80.5377 1.87124 80.9057C2.12791 81.0809 2.32381 81.3307 2.4321 81.6209C2.5404 81.9111 2.55578 82.2275 2.47613 82.5268C2.39649 82.826 2.22573 83.0935 1.98725 83.2924C1.74877 83.4914 1.45425 83.6121 1.14405 83.6381C3.32795 89.1638 9.07508 92.9148 15.0143 92.9503C15.5614 95.4219 16.3653 97.8303 17.4131 100.137L26.2278 100.22C26.2604 100.123 26.2898 100.023 26.3192 99.9257C25.5028 99.969 24.6841 99.9127 23.8815 99.7581C26.0644 97.2371 27.7463 95.9562 26.5239 92.3963L26.5237 92.3962Z" fill="#F2F2F2"/>
<path d="M24.3784 91.8675C40.94 89.2023 51.1686 116.392 61.8503 114.681C81.4266 111.545 73.3124 13.99 88.616 13.1604C101.661 12.4532 118.396 55.5024 132.217 81.3295C139.481 94.905 143.43 104.561 143.43 104.561C143.43 104.561 137.386 133.729 128.79 122.216C116.512 105.77 107.279 48.1743 100.469 50.8029C90.042 54.8279 101.803 104.348 76.7626 119.624C54.8907 132.967 12.1683 114.009 12.1427 102.134C12.1329 97.5727 18.418 92.8267 24.3784 91.8675Z" fill="#68A972"/>
<path d="M103.962 86.305C100.587 87.0729 96.1553 89.447 96.3957 91.6346C96.6535 93.9795 102.284 96.1523 106.8 94.7697C110.504 93.6354 113.875 89.9802 113.105 87.8725C112.31 85.6967 107.244 85.5583 103.962 86.305Z" fill="#68A972"/>
<path d="M192.569 78.4349C193.659 76.6008 195.216 73.8822 194.074 71.9558C192.514 69.3255 187.675 65.8185 184.665 69.2394C182.377 71.8394 182.89 72.8789 182.921 76.9155C183.005 87.9347 176.731 111.467 183.288 122.666C184.515 124.762 191.299 124.346 193.987 124.607C196.966 124.896 200.199 122.016 200.015 118.682C199.85 115.697 197.029 114.828 194.21 112.864C184.072 105.802 186.928 87.9333 192.569 78.4349Z" fill="#68A972"/>
<path d="M64.4391 15.3192C64.3706 16.1369 64.3041 16.9547 64.2397 17.7724C64.1905 18.7302 64.056 19.6817 63.8379 20.6159C63.788 20.8751 63.6758 21.1185 63.5109 21.3252C63.2181 21.6566 63.7601 23.5956 63.3582 23.7815C62.9502 23.9748 62.512 24.0973 62.0624 24.1439C62.0437 24.0076 62.0188 23.8713 61.9908 23.7381C61.9877 23.7226 61.9846 23.7103 61.9814 23.6948C61.8541 23.0902 61.6189 22.5132 61.2868 21.9912C61.3651 22.6097 61.2957 23.2379 61.0844 23.8249C61.0501 23.9209 61.0096 24.0169 60.966 24.1129C59.1998 23.8527 57.6704 22.6664 56.465 22.6788C55.7327 20.2369 55.2167 17.7359 54.9231 15.2046C54.8452 14.5293 54.8016 13.7797 55.219 13.2439C55.5897 12.7669 56.222 12.5934 56.8138 12.4664C58.7474 12.051 60.7233 11.8628 62.701 11.9058L59.2777 11.1128C60.2391 11.0589 61.2031 11.1497 62.1372 11.3823C63.0561 11.658 63.9251 12.262 64.2802 13.1509C64.5512 13.8293 64.4952 14.5913 64.4391 15.3192Z" fill="#2F2E41"/>
<path d="M45.1589 118.283H41.8636L40.2959 105.644L45.1595 105.644L45.1589 118.283Z" fill="#FFB6B6"/>
<path d="M35.213 123.118C35.2146 123.485 35.3618 123.837 35.6225 124.097C35.8833 124.357 36.2366 124.504 36.6057 124.506H42.8089L43.0011 124.11L43.8785 122.31L44.2184 124.11L44.2936 124.506H46.6333L46.5999 124.107L45.976 116.667L45.1598 116.617L41.6335 116.41L40.7672 116.357V118.579C40.1098 119.274 34.9512 121.902 35.213 123.118Z" fill="#2F2E41"/>
<path d="M83.7641 114.717L80.8981 116.334L73.2622 106.11L77.4922 103.724L83.7641 114.717Z" fill="#FFB6B6"/>
<path d="M77.513 123.803C77.6953 124.122 77.9977 124.357 78.3539 124.455C78.7101 124.553 79.0908 124.507 79.4126 124.326L79.7385 124.143H79.7413L84.8081 121.282L84.6465 118.847L86.1005 120.553L87.1729 119.947L88.1339 119.404L87.2843 118.169L83.6716 112.909L82.9362 113.269L79.7636 114.817L78.9893 115.197L80.0895 117.127C79.8639 118.058 76.6829 122.872 77.513 123.803Z" fill="#2F2E41"/>
<path d="M61.512 56.2411C65.3718 56.379 64.7791 65.4722 65.984 73.3813C67.059 80.4375 70.2033 86.3965 69.1518 86.6497L79.5597 105.938C75.4898 109.697 70.7142 112.19 64.7455 112.541C58.2683 106.623 56.4921 93.0026 55.0049 78.9091L53.3815 91.2858L55.546 110.927L45.9704 113.23L39.3471 112.759C33.7335 90.2428 44.354 64.7783 48.9263 55.1034L61.512 56.2411Z" fill="#2F2E41"/>
<path d="M65.6066 51.5364L67.36 46.3058L68.6123 44.5623L69.1133 39.5808C69.1133 26.1306 66.0963 28.3703 66.0963 28.3703L62.1609 23.6398L57.6837 23.5007L54.1456 23.3907L51.2041 28.2478C49.9081 28.7026 48.7543 29.4869 47.8576 30.5227C46.9609 31.5584 46.3524 32.8095 46.0926 34.1516L45.2786 38.3578L48.3236 47.5512L48.1893 46.8681C46.7559 49.4995 47.1205 49.8953 48.3075 51.8711L48.3665 52.5845C48.4213 53.2263 48.6772 53.8348 49.0981 54.3244C49.519 54.814 50.0838 55.1599 50.7128 55.3135C63.395 58.4564 64.7129 63.9543 66.3433 61.6845C66.7222 61.157 65.1144 54.8621 65.6627 54.9166C67.165 55.066 65.6066 51.5364 65.6066 51.5364Z" fill="#E6E6E6"/>
<path d="M74.2852 71.0037C74.027 70.7674 73.8235 70.4781 73.6888 70.1558C73.5541 69.8336 73.4914 69.486 73.505 69.1373C73.5186 68.7886 73.6082 68.447 73.7677 68.1361C73.9272 67.8252 74.1526 67.5524 74.4285 67.3367L71.2863 55.7401L74.2982 54.0872L77.929 67.8878C78.2597 68.3766 78.3985 68.969 78.3192 69.5528C78.24 70.1366 77.9481 70.6711 77.4989 71.0552C77.0498 71.4393 76.4746 71.6462 75.8822 71.6367C75.2899 71.6272 74.7217 71.402 74.2852 71.0037H74.2852Z" fill="#FFB6B6"/>
<path d="M65.6328 28.032C65.6328 28.032 71.2251 29.7254 71.7171 32.682C72.2091 35.6386 73.0686 38.2469 72.8465 39.4564C72.6243 40.6659 75.3984 48.7604 74.8578 49.6915C74.3171 50.6225 75.7714 50.8242 75.2693 52.3504C74.7671 53.8766 74.4872 54.1934 74.8057 54.4718C75.1242 54.7502 76.4982 60.8025 76.4982 60.8025L72.3085 62.0129L64.5919 42.9992L65.6328 28.032Z" fill="#E6E6E6"/>
<path d="M43.6023 71.0037C43.8605 70.7674 44.064 70.4781 44.1987 70.1558C44.3334 69.8336 44.3961 69.486 44.3825 69.1373C44.3689 68.7886 44.2793 68.447 44.1198 68.1361C43.9603 67.8252 43.7349 67.5524 43.459 67.3367L46.6012 55.7401L43.5893 54.0872L39.9585 67.8878C39.6278 68.3766 39.489 68.969 39.5683 69.5528C39.6475 70.1366 39.9394 70.6711 40.3886 71.0552C40.8377 71.4393 41.4129 71.6462 42.0053 71.6367C42.5976 71.6272 43.1658 71.402 43.6023 71.0037L43.6023 71.0037Z" fill="#FFB6B6"/>
<path d="M52.2548 28.032C52.2548 28.032 46.6625 29.7254 46.1705 32.682C45.6785 35.6386 44.819 38.2469 45.0411 39.4564C45.2633 40.6659 42.4892 48.7604 43.0299 49.6915C43.5706 50.6225 42.1163 50.8242 42.6184 52.3504C43.1205 53.8766 43.4005 54.1934 43.082 54.4718C42.7634 54.7502 41.3894 60.8025 41.3894 60.8025L45.5791 62.0129L53.2957 42.9992L52.2548 28.032Z" fill="#E6E6E6"/>
<path d="M56.8337 22.7399C60.6837 22.7399 63.8048 19.6363 63.8048 15.8078C63.8048 11.9793 60.6837 8.87567 56.8337 8.87567C52.9836 8.87567 49.8625 11.9793 49.8625 15.8078C49.8625 19.6363 52.9836 22.7399 56.8337 22.7399Z" fill="#FFB6B6"/>
<path d="M63.9064 26.8024C61.2774 24.4778 65.7598 17.8378 62.2586 13.4065L61.8381 13.0935C61.5212 13.6933 61.0065 14.1664 60.3804 14.4335C60.2497 13.8292 60.0303 13.2474 59.7293 12.7067C59.8049 13.3765 59.7445 14.0546 59.5518 14.7008C59.3556 14.7254 59.2154 14.6972 59.1655 14.6093C59.2278 15.1474 57.5738 15.4147 57.9196 14.5777C57.9221 14.5692 57.9252 14.561 57.9289 14.553C57.5022 15.4076 56.6238 15.8051 55.8606 16.2799C55.0975 16.7511 54.3219 17.5389 54.3966 18.5166C54.4589 19.3079 55.0663 19.8987 55.6769 20.2926C56.2874 20.69 56.9727 20.9995 57.415 21.615C58.1594 22.649 57.985 24.1648 57.6081 25.4238C57.5327 25.6249 57.4095 25.8048 57.2489 25.9481C57.0883 26.0914 56.8952 26.1939 56.6861 26.2467C56.5618 25.5687 56.3272 24.9154 55.9915 24.3124C56.0699 25.0129 56.0009 25.7219 55.789 26.3945C55.335 26.4143 54.8817 26.3422 54.4566 26.1826C54.0314 26.023 53.6433 25.7792 53.3158 25.466L53.7861 27.541C53.0292 27.3827 52.266 27.5621 51.4967 27.6992C51.4767 27.4644 51.4445 27.2308 51.4001 26.9994C51.279 26.3036 51.0411 25.633 50.6961 25.0158C50.7924 25.8735 50.667 26.7415 50.3317 27.5375C50.2943 27.6289 50.2538 27.7203 50.2102 27.8083C49.0265 27.7239 47.846 27.0381 48.0703 25.255C48.1689 24.6828 48.4086 24.1439 48.768 23.6865C49.3785 22.8354 46.2667 21.9245 46.4567 20.8976C46.7402 19.3747 49.5779 18.0277 49.3536 16.4909C49.1543 15.0982 49.1933 11.9544 49.9641 10.8709C51.0777 9.30547 49.8424 6.06711 57.7576 7.9061C60.7022 8.59024 61.7229 5.71793 66.1616 14.4891C66.9226 15.9929 64.1556 15.4759 65.7816 18.6995C67.4076 21.9231 62.7508 24.4778 63.9064 26.8024Z" fill="#2F2E41"/>
<path d="M2.34303e-06 124.605C-0.000848025 124.428 0.229881 124.285 0.51538 124.284H231.482C231.768 124.284 232 124.428 232 124.605C232 124.782 231.768 124.926 231.482 124.926H0.518465C0.232969 124.927 0.000846481 124.784 2.34303e-06 124.607V124.605Z" fill="#CCCCCC"/>
<path d="M118.663 58.5234C118.946 58.4259 119.203 58.268 119.418 58.0608C119.632 57.8536 119.799 57.6021 119.905 57.3241C120.011 57.0461 120.055 56.7483 120.033 56.4518C120.011 56.1552 119.923 55.867 119.777 55.6076L128.285 45.9079L124.546 45.3719L116.855 54.8814C116.433 55.1544 116.126 55.5719 115.993 56.0548C115.86 56.5376 115.909 57.0523 116.132 57.5012C116.355 57.9501 116.736 58.3021 117.202 58.4905C117.669 58.6789 118.189 58.6906 118.663 58.5234V58.5234Z" fill="#FFB8B8"/>
<path d="M122.387 53.1263L123.596 51.8004L124.762 51.7006L124.841 51.6019L125.146 51.2151L125.263 50.1381L126.159 49.9291L128.155 47.3931L128.46 46.8885L136.841 37.1508L138.551 34.3196L138.82 33.7443L139.657 31.9532L139.547 27.4364C139.73 27.0463 139.833 26.6239 139.851 26.1938C139.868 25.7636 139.8 25.3342 139.649 24.9307C139.601 24.8 139.544 24.6724 139.48 24.5487L139.432 24.4609C139.31 24.2446 139.163 24.0429 138.995 23.8595L138.992 23.8552C138.695 23.5321 138.335 23.2734 137.933 23.0953C137.62 22.9532 137.286 22.8612 136.944 22.8228C136.155 22.7358 135.36 22.9344 134.706 23.3824L133.677 24.0896L132.744 24.7365L130.606 28.6486L130.466 28.9036L130.461 28.9099L123.88 40.95L121.896 44.5804L121.594 45.1318L121.566 46.7446L120.612 46.9242L119.486 47.763L119.372 49.1912L118.842 51.4942L118.762 51.624L119.255 51.9149L119.303 51.942L119.393 52.0208L120.649 53.0933L121.411 53.7456L121.437 53.7659L121.635 53.9513L122.387 53.1263Z" fill="#812727"/>
<path d="M50.1339 11.6952C50.1496 11.7011 50.1633 11.707 50.1789 11.7129C50.2088 11.726 50.2395 11.7372 50.2709 11.7462C50.4709 11.8193 50.6795 11.8669 50.8915 11.888C50.9819 11.8978 51.0728 11.9025 51.1637 11.9023C51.2804 11.9027 51.3969 11.8952 51.5125 11.8798C51.641 11.8642 51.7682 11.8384 51.8927 11.8029C51.9518 11.7872 52.01 11.7684 52.0672 11.7468C52.4566 11.6093 52.8085 11.3838 53.0955 11.0881C53.3824 10.7924 53.5965 10.4346 53.7208 10.0427V10.0408C53.7341 10.0025 53.7453 9.96348 53.7544 9.92399C53.8127 9.70475 53.8422 9.47895 53.8423 9.25219V9.24829C53.8438 8.69533 53.6704 8.1559 53.3467 7.70628C53.1516 7.43113 52.9261 7.38514 53.0526 7.07052C53.456 6.0669 51.8053 5.24649 50.8309 5.68778C50.7957 5.68445 50.7604 5.68307 50.7251 5.68363C50.0689 5.68197 49.8255 6.64556 49.4343 7.18803L49.4456 7.1917C49.5447 7.22619 49.6305 7.2906 49.6909 7.37593C49.7513 7.46126 49.7834 7.56324 49.7827 7.66761C49.782 7.77198 49.7485 7.87352 49.687 7.95803C49.6254 8.04255 49.5388 8.10581 49.4392 8.13897C49.1788 8.22335 48.9156 8.29789 48.6497 8.36258C47.7729 9.39237 48.7781 12.4051 50.1339 11.6952Z" fill="#2F2E41"/>
<path d="M53.27 7.446C53.3057 8.37147 53.0672 9.28698 52.5839 10.0787C52.1007 10.8705 51.3941 11.5035 50.5521 11.8992C50.2101 12.0533 49.9124 11.5491 50.2567 11.3939C51.0092 11.0488 51.6414 10.4891 52.0733 9.78591C52.5052 9.08272 52.7172 8.26776 52.6824 7.44452C52.6628 7.06869 53.2505 7.07132 53.27 7.44601V7.446Z" fill="#68A972"/>
</g>
<defs>
<clipPath id="clip0_8_2121">
<rect width="232" height="125" fill="white"/>
</clipPath>
</defs>
</svg>
