<svg width="233" height="153" viewBox="0 0 233 153" fill="none" xmlns="http://www.w3.org/2000/svg">
<g clip-path="url(#clip0_8_2082)">
<path d="M199.59 149.447L199.596 151.932V152.457H194.797V151.669L194.794 141.953L194.788 132.541V130.813L194.785 123.806L194.782 123.694L193.947 100.102V100.084L193.097 76.0363V76.0332L193.075 75.38L188.932 77.577L183.824 80.2864L181.398 81.5739L177.934 83.4083L172.094 86.5084H172.091L141.804 102.568L141.742 151.932V152.457H137.109L137.09 151.932L135.552 104.443L90.8837 86.6397L86.1568 84.7552L84.1372 56.889C83.6308 49.9045 87.3761 43.5012 93.3034 40.3824C94.7665 39.6136 96.3609 39.0449 98.0553 38.7167L104.877 37.3948L121.902 34.0916L127.411 33.026L134.611 31.6291L137.449 31.0791L142.117 30.1728L142.539 30.0915L143.855 29.8353L144.324 29.7446L145.087 29.5978L145.624 30.5478C145.628 30.5478 145.628 30.5509 145.628 30.554L148.791 36.1667L149.36 37.1792L149.363 37.1823L152.105 42.0418C152.105 42.0418 152.108 42.0449 152.108 42.048L154.778 46.7857L160.018 47.8263L162.6 48.3388L178.606 51.517L180.717 51.9389H180.72L186.059 52.9983L187.473 53.2795L194.072 54.5889L194.122 54.5983L197.051 55.1796L201.985 56.1609L199.518 123.806L199.565 140.297V140.3L199.59 149.447H199.59Z" fill="#812727"/>
<path d="M117.694 19.0882C116.994 17.7694 114.981 14.9475 112.661 11.7786C112.23 11.188 111.789 10.588 111.345 9.98171C110.554 8.90982 109.751 7.81917 108.972 6.75664C108.475 6.05663 107.503 5.89101 106.803 6.38476L102.138 9.68483C101.438 10.1786 101.269 11.1505 101.766 11.8505L103.17 13.8349L103.539 14.3568L104.083 15.1256L104.736 16.0475V16.0506L104.921 16.3068L105.571 17.2287L105.93 17.735L109.078 22.1851L110.492 24.182C110.985 24.882 111.958 25.0477 112.658 24.5539L116.716 21.682L117.288 21.2788L117.322 21.2538C118.023 20.7601 118.192 19.7882 117.694 19.0882Z" fill="#812727"/>
<path d="M112.655 11.7099L111.439 9.99421C111.417 9.96297 111.376 9.95671 111.348 9.97859L111.345 9.98172C111.317 10.0005 111.311 10.038 111.333 10.0692L112.549 11.788C112.567 11.8161 112.608 11.8224 112.639 11.8036C112.649 11.7974 112.655 11.788 112.661 11.7786C112.671 11.7567 112.671 11.7317 112.655 11.7099H112.655Z" fill="#812727"/>
<path d="M108.85 6.84164L117.575 19.1735C118.005 19.7825 117.884 20.6159 117.311 21.0784L117.311 21.0786C117.303 21.0854 117.294 21.0922 117.285 21.0989C117.27 21.1109 117.254 21.1224 117.238 21.1338C117.238 21.1338 117.176 21.1713 117.063 21.2395C116.948 21.3085 116.781 21.4086 116.571 21.5327C116.509 21.5701 116.443 21.6092 116.373 21.6505C116.234 21.7328 116.081 21.8231 115.916 21.9192C115.851 21.9578 115.783 21.9973 115.714 22.0378C115.36 22.2448 114.963 22.4753 114.542 22.7157C114.471 22.7566 114.399 22.7976 114.327 22.8387C114.308 22.8494 110.712 24.2403 110.611 24.0964L101.886 11.7646C101.438 11.1303 101.588 10.2528 102.223 9.80427L102.909 9.31948C103.018 9.24204 103.167 9.26513 103.253 9.36773C103.259 9.37441 103.265 9.38109 103.272 9.38739C103.369 9.48312 103.524 9.48843 103.636 9.40947L106.046 7.70546C106.158 7.62649 106.204 7.47882 106.147 7.35499C106.143 7.34679 106.139 7.33898 106.134 7.33116C106.066 7.21527 106.094 7.06766 106.204 6.99021L106.889 6.50542C107.524 6.05688 108.402 6.20739 108.85 6.84164H108.85Z" fill="#68A972"/>
<path d="M103.536 14.2943L103.229 13.8631C103.217 13.8443 103.195 13.8318 103.17 13.835C103.16 13.835 103.148 13.8412 103.139 13.8474C103.11 13.8693 103.101 13.91 103.123 13.9381L103.426 14.3693C103.448 14.3975 103.489 14.4068 103.52 14.385C103.529 14.3787 103.536 14.3693 103.539 14.3568C103.548 14.3381 103.548 14.3131 103.536 14.2943L103.536 14.2943Z" fill="#812727"/>
<path d="M104.73 15.985L104.142 15.1506C104.126 15.1318 104.105 15.1225 104.083 15.1256C104.07 15.1256 104.058 15.1287 104.051 15.135C104.02 15.1568 104.014 15.1975 104.036 15.2287L104.624 16.06C104.645 16.0881 104.686 16.0975 104.714 16.0756C104.724 16.0693 104.73 16.06 104.736 16.0506V16.0475C104.745 16.0287 104.745 16.0037 104.73 15.985V15.985Z" fill="#812727"/>
<path d="M105.565 17.1663L104.977 16.3319C104.961 16.3131 104.939 16.3037 104.921 16.3069C104.908 16.3069 104.896 16.31 104.886 16.3163C104.855 16.3381 104.849 16.3788 104.871 16.41L105.458 17.2413C105.48 17.2694 105.521 17.2788 105.549 17.2569C105.558 17.2506 105.568 17.2413 105.571 17.2288C105.58 17.21 105.58 17.185 105.565 17.1663V17.1663Z" fill="#812727"/>
<path d="M102.966 9.56101L102.053 10.2064C102.016 10.2326 102.007 10.2839 102.033 10.3209C102.059 10.358 102.111 10.3668 102.148 10.3406L103.061 9.69522C103.098 9.66901 103.107 9.61772 103.08 9.58066C103.054 9.5436 103.003 9.53481 102.966 9.56101Z" fill="#E6E6E6"/>
<path d="M106.525 7.21661C106.598 7.21661 106.657 7.15774 106.657 7.08511C106.657 7.01249 106.598 6.95361 106.525 6.95361C106.453 6.95361 106.394 7.01249 106.394 7.08511C106.394 7.15774 106.453 7.21661 106.525 7.21661Z" fill="#E6E6E6"/>
<path d="M106.821 7.00781C106.893 7.00781 106.952 6.94894 106.952 6.87631C106.952 6.80369 106.893 6.74481 106.821 6.74481C106.748 6.74481 106.689 6.80369 106.689 6.87631C106.689 6.94894 106.748 7.00781 106.821 7.00781Z" fill="#E6E6E6"/>
<path d="M107.116 6.79901C107.189 6.79901 107.247 6.74014 107.247 6.66751C107.247 6.59489 107.189 6.53601 107.116 6.53601C107.043 6.53601 106.984 6.59489 106.984 6.66751C106.984 6.74014 107.043 6.79901 107.116 6.79901Z" fill="#E6E6E6"/>
<path d="M142.117 14.4412H123.984V31.629H142.117V14.4412Z" fill="#2F2E41"/>
<path d="M111.171 20.0196C110.603 20.9421 109.873 21.6597 109.12 22.1059L104.263 31.2349L99.9846 28.7974L105.373 19.7994C105.432 18.9262 105.745 17.952 106.313 17.0295C107.611 14.9223 109.751 13.8834 111.092 14.7091C112.434 15.5348 112.469 17.9124 111.171 20.0196Z" fill="#A0616A"/>
<path d="M193.607 142.19L197.507 141.409L195.748 123.5L189.992 124.653L193.607 142.19Z" fill="#A0616A"/>
<path d="M208.738 147.287C208.886 147.942 208.54 148.578 207.967 148.707L200.266 150.439C200.266 150.439 198.823 147.565 195.438 146.949L196.205 151.353L192.233 152.246L191.138 145.135C191.138 145.135 189.232 141.627 191.008 139.215C192.783 136.804 191.056 137.472 191.056 137.472L190.948 132.943L197.11 132.298L198.686 139.092L203.119 145.191L207.867 146.339C208.289 146.442 208.632 146.814 208.738 147.287H208.738Z" fill="#2F2E41"/>
<path d="M126.329 50.5357L126.642 52.7233C126.642 52.7233 133.207 59.911 134.77 63.036L153.733 53.6608L150.401 45.8481L126.329 50.5357Z" fill="#A0616A"/>
<path d="M150.089 53.0358C150.089 53.0358 132.37 58.0359 133.883 63.036C135.395 68.0361 136.33 70.0895 136.33 70.0895C136.33 70.0895 132.894 77.7238 143.524 81.1614C154.153 84.599 176.974 87.099 176.974 87.099L190.574 131.944L196.983 130.225L191.78 78.5832L166.345 69.5986L167.908 60.2234L162.594 62.411L153.733 52.6088L150.089 53.0358V53.0358Z" fill="#E6E6E6"/>
<path d="M176.567 96.755L180.351 97.9808L187.58 81.5005L181.996 79.6912L176.567 96.755Z" fill="#A0616A"/>
<path d="M187.27 108.599C187.078 109.243 186.466 109.628 185.902 109.46L178.338 107.206C178.338 107.206 178.486 103.993 175.835 101.801L174.349 106.017L170.448 104.854L172.972 98.1156C172.972 98.1156 173.026 94.1241 175.755 92.889C178.484 91.6539 176.65 91.3924 176.65 91.3924L178.773 87.389L184.463 89.8397L182.512 96.5361L183.395 104.023L186.974 107.347C187.292 107.642 187.409 108.135 187.27 108.599L187.27 108.599V108.599Z" fill="#2F2E41"/>
<path d="M161.059 63.036L167.908 60.2234L183.852 49.9107C183.852 49.9107 196.045 40.1614 196.983 53.3175C197.92 66.4735 189.167 86.7865 189.167 86.7865L177.912 83.6614L179.056 69.7352L164.313 74.13L161.059 63.036Z" fill="#E6E6E6"/>
<path d="M143.787 28.2985L152.433 51.6295L164.157 64.5985L175.724 57.0984L162.359 53.6608L162.713 45.8481L143.787 28.2985Z" fill="#2F2E41"/>
<path d="M93.0098 151.786V152.457H88.3541L88.3421 151.786L86.7316 65.9138H92.762L92.774 68.3227L93.0098 151.786Z" fill="#812727"/>
<path d="M189.893 58.5188C188.921 58.041 188.137 57.3832 187.621 56.6761L178.068 52.7096L180.089 48.2211L189.562 52.728C190.437 52.7043 191.437 52.9228 192.41 53.4006C194.631 54.4921 195.869 56.5227 195.174 57.936C194.48 59.3494 192.115 59.6103 189.893 58.5188V58.5188Z" fill="#A0616A"/>
<path d="M139.459 27.0977L141.669 26.1393C141.669 26.1393 150.401 28.6258 151.183 30.0493C151.964 31.4728 156.341 37.4104 156.341 37.4104L187.291 50.5357L184.478 56.1609L162.594 50.5357L150.714 38.0355L139.459 27.0977V27.0977Z" fill="#2F2E41"/>
<path d="M136.021 25.2227L125.704 24.5977L120.389 27.4102L126.329 53.6608C126.329 53.6608 143.821 46.1606 151.488 48.5044C151.488 48.5044 154.261 41.3224 149.361 37.1789L141.335 26.4727L136.021 25.2227V25.2227Z" fill="#68A972"/>
<path d="M125.079 26.1602L124.979 25.1466L114.762 28.9727C114.762 28.9727 111.011 31.7853 109.76 33.0353C108.51 34.2853 104.758 36.7854 104.758 36.7854L107.884 25.5351L102.882 23.3476C102.882 23.3476 87.8763 43.0355 95.0666 44.5981C102.257 46.1606 114.762 43.348 114.762 43.348L115.387 78.0363L141.492 78.8176L130.706 42.723L125.079 26.1602V26.1602Z" fill="#2F2E41"/>
<path d="M132.859 23.198C137.742 23.198 141.7 19.2413 141.7 14.3604C141.7 9.47959 137.742 5.52289 132.859 5.52289C127.976 5.52289 124.018 9.47959 124.018 14.3604C124.018 19.2413 127.976 23.198 132.859 23.198Z" fill="#A0616A"/>
<path d="M128.674 0.0658471C123.023 0.94008 123.293 3.0389 121.484 4.12844C118.296 6.04796 117.038 11.591 118.722 15.2487C119.172 16.2261 120.12 17.5593 119.66 18.9988C119.306 20.1039 118.288 20.7558 118.096 20.8739C116.531 21.8402 117.554 20.6906 116.846 21.4989C116.065 22.391 117.275 23.6513 116.533 25.249C115.876 26.6654 114.521 26.5458 114.345 27.4365C114.042 28.9702 117.521 32.0541 121.223 31.8116C124.519 31.5957 126.968 28.81 127.788 26.1865C128.337 24.4291 128.574 21.4062 127.163 19.9364C126.965 19.7302 126.424 19.231 125.912 18.3738C125.507 17.6955 124.975 16.8026 125.287 16.1863C125.619 15.5296 126.562 15.8753 127.163 15.2487C127.977 14.3991 127.009 12.9637 127.163 11.4987C127.422 9.01799 130.938 6.03441 134.666 6.49855C138.894 7.02507 140.445 11.6214 140.606 12.1237C140.938 13.1647 140.931 14.1719 140.918 16.1863C140.899 19.077 140.887 20.8889 139.98 22.7489C138.676 25.4242 137.014 25.1352 136.541 27.124C135.804 30.2249 139.271 33.3392 139.668 33.6867C142.607 36.2627 147.047 37.0373 147.796 35.8742C148.47 34.8261 145.509 33.1958 145.608 29.9366C145.693 27.1121 147.979 26.2511 147.483 24.3114C146.937 22.1763 144.024 22.6633 142.794 20.2489C141.645 17.9952 143.762 16.7448 143.419 12.1237C143.347 11.1461 143.04 8.3406 141.231 5.56104C140.434 4.33649 139.624 3.09108 138.105 2.43596C136.404 1.70257 131.663 -0.39658 128.674 0.0658471Z" fill="#2F2E41"/>
<path d="M124.922 7.87853C125.152 9.8137 128.059 10.7621 129.299 11.0036C129.825 11.1059 131.6 11.4516 133.363 10.6911C134.015 10.41 134.253 10.1558 134.926 10.0661C135.839 9.9447 136.298 10.2915 137.74 10.6911C139.343 11.1354 140.145 11.3576 140.554 11.0036C141.222 10.425 140.709 8.53205 139.928 7.25352C138.486 4.88947 135.845 4.15741 134.614 3.81595C133.207 3.42585 130.352 2.63421 127.736 4.12846C127.386 4.32824 124.689 5.9124 124.922 7.87854V7.87853Z" fill="#2F2E41"/>
<path d="M193.295 58.5794C189.123 60.5242 187.464 57.9844 187.464 57.9844L187.466 57.2273L187.479 47.4898C190.384 45.594 195.288 48.3475 195.288 48.3475L193.401 58.0316L193.295 58.5794V58.5794Z" fill="#812727"/>
<path d="M194.644 46.5671C194.644 46.5671 190.331 44.721 188.001 46.1115C188.001 46.1115 185.572 48.5726 187.475 49.2881L194.964 50.0136C194.964 50.0136 196.667 48.8719 195.925 47.9326C195.182 46.9933 194.644 46.5671 194.644 46.5671V46.5671Z" fill="#68A972"/>
<path d="M40.3746 123.838L43.9713 153L71.5457 152.601L71.8856 123.838H40.3746Z" fill="#F2F2F2"/>
<path d="M63.2767 118.989C62.4511 119.041 61.9948 118.016 62.6195 117.418L62.6816 117.171C62.6735 117.151 62.6653 117.132 62.657 117.112C61.8201 115.118 60.3216 117 58.1621 117.134C54.9862 117.331 55.0336 119.732 56.264 122.54C56.5979 123.302 53.7628 117.152 53.7628 113.024C53.7628 111.987 53.8196 110.95 53.9357 109.915C54.0313 109.069 54.1629 108.227 54.3333 107.394C55.2547 102.889 57.25 98.5983 60.1279 95.0144C61.5114 94.2584 62.6652 93.0767 63.3621 91.6602C63.6125 91.1493 65.7636 90.7178 65.8565 90.1579C65.6991 90.1785 63.3079 87.6635 63.4267 87.5164C63.2072 87.1836 62.8145 87.0181 62.5749 86.6934C61.383 85.0781 59.741 85.3601 58.8838 87.5551C57.0526 88.479 57.0349 90.0112 58.1585 91.4847C58.8734 92.4222 58.9716 93.6908 59.5988 94.6945C59.5343 94.777 59.4671 94.857 59.4026 94.9396C59.3778 94.9714 59.3531 95.0032 59.3284 95.0351C58.316 96.3447 56.2945 96.0092 55.7307 94.4532C55.6895 94.3397 55.3406 100.488 55.6032 94.1243C55.8658 87.761 53.5763 91.0003 52.4171 89.5329C51.0327 87.7801 48.2163 88.5767 47.9724 90.7966C47.97 90.8179 47.9678 90.8391 47.9655 90.8603C48.1369 90.957 48.3049 91.0597 48.4689 91.1681C49.4038 91.7862 49.0803 93.235 47.9726 93.4057L47.9475 93.4095C48.0094 94.0262 48.1153 94.6377 48.2701 95.2389C46.7911 100.956 49.983 103.04 54.5416 103.134L54.7791 103.472C54.3474 104.714 54.0002 105.985 53.7396 107.273C53.4944 108.467 53.324 109.675 53.2285 110.888L53.2245 110.939C53.1455 111.971 51.8397 112.41 51.1834 111.61C51.0164 111.406 50.8454 111.228 50.6732 111.086C48.6967 109.463 45.9045 108.866 43.7723 107.561C42.7459 106.933 41.4306 107.745 41.6098 108.934L41.6185 108.991C41.936 109.12 42.2457 109.27 42.5451 109.438C42.7167 109.534 42.8847 109.637 43.0489 109.746C43.9839 110.364 43.6602 111.813 42.5521 111.983L42.527 111.987C42.509 111.989 42.4935 111.992 42.4754 111.995L42.4918 112.033C43.2047 113.71 44.9085 114.795 46.728 114.696C48.8697 114.579 51.53 116.369 53.8764 119.534L53.879 119.534C54.3436 121.557 55.0224 123.533 55.8949 125.417H63.0963C63.1221 125.337 63.1453 125.254 63.1685 125.174C62.5026 125.215 61.8315 125.177 61.1759 125.055C61.7102 124.4 62.2445 123.739 62.7788 123.084C62.7917 123.071 62.802 123.058 62.8123 123.045C63.0834 122.71 63.357 122.377 63.628 122.042L63.6281 122.041C63.6451 121.012 63.5216 119.985 63.2769 118.989L63.2767 118.989Z" fill="#F2F2F2"/>
<path d="M233 152.521C233 152.706 232.85 152.856 232.664 152.856H0V152.185H232.664C232.85 152.185 233 152.335 233 152.521Z" fill="#E6E6E6"/>
</g>
<defs>
<clipPath id="clip0_8_2082">
<rect width="233" height="153" fill="white"/>
</clipPath>
</defs>
</svg>
