<svg width="21" height="21" viewBox="0 0 21 21" fill="none" xmlns="http://www.w3.org/2000/svg">
<path d="M10.5 6.33325C11.605 6.33325 12.6648 6.77224 13.4462 7.55364C14.2276 8.33504 14.6666 9.39485 14.6666 10.4999C14.6666 11.605 14.2276 12.6648 13.4462 13.4462C12.6648 14.2276 11.605 14.6666 10.5 14.6666C9.39489 14.6666 8.33508 14.2276 7.55368 13.4462C6.77227 12.6648 6.33329 11.605 6.33329 10.4999C6.33329 9.39485 6.77227 8.33504 7.55368 7.55364C8.33508 6.77224 9.39489 6.33325 10.5 6.33325ZM10.5 8.41658C9.94742 8.41658 9.41752 8.63608 9.02682 9.02678C8.63612 9.41748 8.41662 9.94738 8.41662 10.4999C8.41662 11.0525 8.63612 11.5824 9.02682 11.9731C9.41752 12.3638 9.94742 12.5833 10.5 12.5833C11.0525 12.5833 11.5824 12.3638 11.9731 11.9731C12.3638 11.5824 12.5833 11.0525 12.5833 10.4999C12.5833 9.94738 12.3638 9.41748 11.9731 9.02678C11.5824 8.63608 11.0525 8.41658 10.5 8.41658ZM8.41662 20.9166C8.1562 20.9166 7.93745 20.7291 7.89579 20.4791L7.51037 17.7187C6.85412 17.4583 6.29162 17.1041 5.74995 16.6874L3.1562 17.7395C2.92704 17.8228 2.64579 17.7395 2.52079 17.5103L0.437455 13.9062C0.302038 13.677 0.364538 13.3958 0.562455 13.2395L2.76037 11.5103L2.68745 10.4999L2.76037 9.45825L0.562455 7.76033C0.364538 7.60408 0.302038 7.32283 0.437455 7.09367L2.52079 3.4895C2.64579 3.26034 2.92704 3.16659 3.1562 3.26034L5.74995 4.302C6.29162 3.89575 6.85412 3.54159 7.51037 3.28117L7.89579 0.520752C7.93745 0.270752 8.1562 0.083252 8.41662 0.083252H12.5833C12.8437 0.083252 13.0625 0.270752 13.1041 0.520752L13.4895 3.28117C14.1458 3.54159 14.7083 3.89575 15.25 4.302L17.8437 3.26034C18.0729 3.16659 18.3541 3.26034 18.4791 3.4895L20.5625 7.09367C20.6979 7.32283 20.6354 7.60408 20.4375 7.76033L18.2395 9.45825L18.3125 10.4999L18.2395 11.5416L20.4375 13.2395C20.6354 13.3958 20.6979 13.677 20.5625 13.9062L18.4791 17.5103C18.3541 17.7395 18.0729 17.8333 17.8437 17.7395L15.25 16.6978C14.7083 17.1041 14.1458 17.4583 13.4895 17.7187L13.1041 20.4791C13.0625 20.7291 12.8437 20.9166 12.5833 20.9166H8.41662ZM9.71871 2.16659L9.33329 4.88534C8.08329 5.14575 6.97912 5.81242 6.17704 6.7395L3.66662 5.65617L2.88537 7.01033L5.08329 8.62492C4.66662 9.84367 4.66662 11.1666 5.08329 12.3749L2.87495 13.9999L3.6562 15.3541L6.18745 14.2708C6.98954 15.1874 8.08329 15.8541 9.32287 16.1041L9.70829 18.8333H11.2916L11.677 16.1145C12.9166 15.8541 14.0104 15.1874 14.8125 14.2708L17.3437 15.3541L18.125 13.9999L15.9166 12.3853C16.3333 11.1666 16.3333 9.84367 15.9166 8.62492L18.1145 7.01033L17.3333 5.65617L14.8229 6.7395C14.0208 5.81242 12.9166 5.14575 11.6666 4.89575L11.2812 2.16659H9.71871Z" fill="#AAAAAA"/>
</svg>
