<svg width="1336" height="326" viewBox="0 0 1336 326" fill="none" xmlns="http://www.w3.org/2000/svg">
<path d="M12.1494 178.88C12.1494 165.078 14.8747 151.41 20.17 138.659C25.4654 125.906 33.2266 114.32 43.011 104.56C52.7953 94.7997 64.4106 87.0575 77.1943 81.7754C89.9785 76.4938 103.68 73.7749 117.517 73.7749V178.88H12.1494Z" fill="#442781"/>
<path d="M12.1494 178.88C12.1494 192.683 14.8747 206.351 20.17 219.103C25.4654 231.855 33.2266 243.442 43.011 253.202C52.7953 262.962 64.4106 270.704 77.1943 275.986C89.9785 281.268 103.68 283.986 117.517 283.986V178.88H12.1494Z" fill="#61459C"/>
<path d="M222.884 178.88C222.884 192.683 220.16 206.351 214.866 219.103C209.57 231.855 201.81 243.442 192.023 253.202C182.239 262.962 170.624 270.704 157.839 275.986C145.056 281.268 131.354 283.986 117.518 283.986V178.88H222.884Z" fill="#A992DB"/>
<path d="M287.851 88.0783C287.851 131.663 252.429 166.996 208.736 166.996H129.622V88.0783C129.622 44.4934 165.043 9.16064 208.736 9.16064C252.429 9.16064 287.851 44.4934 287.851 88.0783Z" fill="#68A972"/>
<path d="M464.8 105.6V133H407.6V162.6H450.4V189.2H407.6V246H373.4V105.6H464.8ZM592.975 134.4V246H558.775V230.8C555.308 235.733 550.575 239.733 544.575 242.8C538.708 245.733 532.175 247.2 524.975 247.2C516.442 247.2 508.908 245.333 502.375 241.6C495.842 237.733 490.775 232.2 487.175 225C483.575 217.8 481.775 209.333 481.775 199.6V134.4H515.775V195C515.775 202.467 517.708 208.267 521.575 212.4C525.442 216.533 530.642 218.6 537.175 218.6C543.842 218.6 549.108 216.533 552.975 212.4C556.842 208.267 558.775 202.467 558.775 195V134.4H592.975ZM685.541 133.2C698.607 133.2 709.007 137.467 716.741 146C724.607 154.4 728.541 166 728.541 180.8V246H694.541V185.4C694.541 177.933 692.607 172.133 688.741 168C684.874 163.867 679.674 161.8 673.141 161.8C666.607 161.8 661.407 163.867 657.541 168C653.674 172.133 651.741 177.933 651.741 185.4V246H617.541V134.4H651.741V149.2C655.207 144.267 659.874 140.4 665.741 137.6C671.607 134.667 678.207 133.2 685.541 133.2ZM769.506 122.8C763.506 122.8 758.573 121.067 754.706 117.6C750.973 114 749.106 109.6 749.106 104.4C749.106 99.0667 750.973 94.6667 754.706 91.2C758.573 87.6 763.506 85.8 769.506 85.8C775.373 85.8 780.173 87.6 783.906 91.2C787.773 94.6667 789.706 99.0667 789.706 104.4C789.706 109.6 787.773 114 783.906 117.6C780.173 121.067 775.373 122.8 769.506 122.8ZM786.506 134.4V246H752.306V134.4H786.506ZM804.491 190.2C804.491 178.6 806.824 168.467 811.491 159.8C816.291 151.133 822.891 144.467 831.291 139.8C839.824 135.133 849.557 132.8 860.491 132.8C874.491 132.8 886.157 136.467 895.491 143.8C904.957 151.133 911.157 161.467 914.091 174.8H877.691C874.624 166.267 868.691 162 859.891 162C853.624 162 848.624 164.467 844.891 169.4C841.157 174.2 839.291 181.133 839.291 190.2C839.291 199.267 841.157 206.267 844.891 211.2C848.624 216 853.624 218.4 859.891 218.4C868.691 218.4 874.624 214.133 877.691 205.6H914.091C911.157 218.667 904.957 228.933 895.491 236.4C886.024 243.867 874.357 247.6 860.491 247.6C849.557 247.6 839.824 245.267 831.291 240.6C822.891 235.933 816.291 229.267 811.491 220.6C806.824 211.933 804.491 201.8 804.491 190.2ZM1042.58 134.4V246H1008.38V230.8C1004.92 235.733 1000.18 239.733 994.184 242.8C988.318 245.733 981.784 247.2 974.584 247.2C966.051 247.2 958.518 245.333 951.984 241.6C945.451 237.733 940.384 232.2 936.784 225C933.184 217.8 931.384 209.333 931.384 199.6V134.4H965.384V195C965.384 202.467 967.318 208.267 971.184 212.4C975.051 216.533 980.251 218.6 986.784 218.6C993.451 218.6 998.718 216.533 1002.58 212.4C1006.45 208.267 1008.38 202.467 1008.38 195V134.4H1042.58ZM1101.35 98V246H1067.15V98H1101.35ZM1119.33 190C1119.33 178.533 1121.47 168.467 1125.73 159.8C1130.13 151.133 1136.07 144.467 1143.53 139.8C1151 135.133 1159.33 132.8 1168.53 132.8C1176.4 132.8 1183.27 134.4 1189.13 137.6C1195.13 140.8 1199.73 145 1202.93 150.2V134.4H1237.13V246H1202.93V230.2C1199.6 235.4 1194.93 239.6 1188.93 242.8C1183.07 246 1176.2 247.6 1168.33 247.6C1159.27 247.6 1151 245.267 1143.53 240.6C1136.07 235.8 1130.13 229.067 1125.73 220.4C1121.47 211.6 1119.33 201.467 1119.33 190ZM1202.93 190.2C1202.93 181.667 1200.53 174.933 1195.73 170C1191.07 165.067 1185.33 162.6 1178.53 162.6C1171.73 162.6 1165.93 165.067 1161.13 170C1156.47 174.8 1154.13 181.467 1154.13 190C1154.13 198.533 1156.47 205.333 1161.13 210.4C1165.93 215.333 1171.73 217.8 1178.53 217.8C1185.33 217.8 1191.07 215.333 1195.73 210.4C1200.53 205.467 1202.93 198.733 1202.93 190.2ZM1296.08 153C1300.08 146.867 1305.08 142.067 1311.08 138.6C1317.08 135 1323.74 133.2 1331.08 133.2V169.4H1321.68C1313.14 169.4 1306.74 171.267 1302.48 175C1298.21 178.6 1296.08 185 1296.08 194.2V246H1261.88V134.4H1296.08V153Z" fill="#222222"/>
</svg>
