<svg width="19" height="19" viewBox="0 0 19 19" fill="none" xmlns="http://www.w3.org/2000/svg">
<path d="M11.6667 13.2396L14.3646 10.5417H4.29167V8.45833H14.3646L11.6667 5.76042L13.1458 4.29167L18.3542 9.5L13.1458 14.7083L11.6667 13.2396ZM16.7917 0.125C17.3442 0.125 17.8741 0.344493 18.2648 0.735194C18.6555 1.12589 18.875 1.6558 18.875 2.20833V7.07292L16.7917 4.98958V2.20833H2.20833V16.7917H16.7917V14.0104L18.875 11.9271V16.7917C18.875 17.3442 18.6555 17.8741 18.2648 18.2648C17.8741 18.6555 17.3442 18.875 16.7917 18.875H2.20833C1.05208 18.875 0.125 17.9375 0.125 16.7917V2.20833C0.125 1.05208 1.05208 0.125 2.20833 0.125H16.7917Z" fill="#AAAAAA"/>
</svg>
