<svg width="19" height="19" viewBox="0 0 19 19" fill="none" xmlns="http://www.w3.org/2000/svg">
<path d="M12.625 0.125H2.20833C1.6558 0.125 1.12589 0.344493 0.735194 0.735194C0.344493 1.12589 0.125 1.6558 0.125 2.20833V16.7917C0.125 17.3442 0.344493 17.8741 0.735194 18.2648C1.12589 18.6555 1.6558 18.875 2.20833 18.875H16.7917C17.3442 18.875 17.8741 18.6555 18.2648 18.2648C18.6555 17.8741 18.875 17.3442 18.875 16.7917V6.375L12.625 0.125ZM16.7917 16.7917H2.20833V2.20833H11.5833V7.41667H16.7917V16.7917ZM14.7083 11.5833H4.29167V9.5H14.7083V11.5833ZM11.5833 14.7083H4.29167V12.625H11.5833" fill="#AAAAAA"/>
</svg>
